squats_1_grf
version=1
nRows=18
nColumns=19
inDegrees=no
endheader
time	ground_force_right_vx	ground_force_right_vy	ground_force_right_vz	ground_force_right_px	ground_force_right_py	ground_force_right_pz	ground_force_right_mx	ground_force_right_my	ground_force_right_mz	ground_force_left_vx	ground_force_left_vy	ground_force_left_vz	ground_force_left_px	ground_force_left_py	ground_force_left_pz	ground_force_left_mx	ground_force_left_my	ground_force_left_mz
     21.74800000	      8.24048827	    444.32542698	     34.19084512	     -3.44997107	      0.00725263	      2.32460914	     -0.02735095	      9.38341512	      0.04248577	      3.39560658	    431.37894113	    -40.67831791	     -3.46854767	      0.00796771	      2.67810217	      0.02350048	     -7.07312013	      0.01228232
     21.74900000	      8.28237213	    444.48181142	     34.20461077	     -3.44998022	      0.00725256	      2.32461893	     -0.02732626	      9.37494583	      0.04244742	      3.50900594	    431.30142892	    -40.66761993	     -3.46857470	      0.00796762	      2.67810102	      0.02350717	     -7.07513210	      0.01228581
     21.75000000	      8.32313040	    444.63133150	     34.21563120	     -3.44998907	      0.00725249	      2.32462896	     -0.02730044	      9.36608602	      0.04240731	      3.62020599	    431.21469912	    -40.65994286	     -3.46860156	      0.00796753	      2.67810052	      0.02351109	     -7.07631333	      0.01228786
     21.75100000	      8.36264869	    444.77479814	     34.22410290	     -3.44999765	      0.00725242	      2.32463923	     -0.02727344	      9.35682411	      0.04236537	      3.72920729	    431.11876213	    -40.65494113	     -3.46862815	      0.00796744	      2.67810057	      0.02351240	     -7.07670629	      0.01228855
     21.75200000	      8.40083075	    444.91292459	     34.23024392	     -3.45000601	      0.00725235	      2.32464971	     -0.02724523	      9.34714571	      0.04232155	      3.83599491	    431.01367101	    -40.65224521	     -3.46865440	      0.00796736	      2.67810104	      0.02351125	     -7.07636035	      0.01228794
     21.75300000	      8.43759969	    445.04631831	     34.23429196	     -3.45001422	      0.00725227	      2.32466037	     -0.02721576	      9.33703377	      0.04227576	      3.94053621	    430.89952028	    -40.65146661	     -3.46868021	      0.00796727	      2.67810182	      0.02350783	     -7.07533090	      0.01228616
     21.75400000	      8.47289878	    445.17547442	     34.23650238	     -3.45002233	      0.00725220	      2.32467117	     -0.02718496	      9.32646885	      0.04222793	      4.04277926	    430.77644414	    -40.65220306	     -3.46870547	      0.00796719	      2.67810279	      0.02350234	     -7.07367847	      0.01228329
     21.75500000	      8.50669170	    445.30077098	     34.23714610	     -3.45003041	      0.00725213	      2.32468205	     -0.02715278	      9.31542936	      0.04217795	      4.14265165	    430.64461416	    -40.65404371	     -3.46873006	      0.00796711	      2.67810382	      0.02349499	     -7.07146771	      0.01227945
     21.75600000	      8.53896224	    445.42246608	     34.23650759	     -3.45003852	      0.00725206	      2.32469295	     -0.02711915	      9.30389185	      0.04212571	      4.24005999	    430.50423650	    -40.65657422	     -3.46875387	      0.00796703	      2.67810479	      0.02348602	     -7.06876642	      0.01227476
     21.75700000	      8.56971357	    445.54069682	     34.23488265	     -3.45004675	      0.00725198	      2.32470381	     -0.02708400	      9.29183136	      0.04207110	      4.33488991	    430.35554854	    -40.65938182	     -3.46877677	      0.00796696	      2.67810557	      0.02347564	     -7.06564439	      0.01226934
     21.75800000	      8.59896686	    445.65548035	     34.23257626	     -3.45005517	      0.00725191	      2.32471455	     -0.02704725	      9.27922177	      0.04201401	      4.42700669	    430.19881516	    -40.66206012	     -3.46879865	      0.00796689	      2.67810606	      0.02346411	     -7.06217244	      0.01226331
     21.75900000	      8.62675949	    445.76671674	     34.22990038	     -3.45006384	      0.00725184	      2.32472507	     -0.02700881	      9.26603620	      0.04195431	      4.51625640	    430.03432447	    -40.66421373	     -3.46881936	      0.00796682	      2.67810613	      0.02345165	     -7.05842126	      0.01225679
     21.76000000	      8.65314269	    445.87419384	     34.22717169	     -3.45007283	      0.00725176	      2.32473529	     -0.02696862	      9.25224748	      0.04189187	      4.60246757	    429.86238334	    -40.66546263	     -3.46883880	      0.00796675	      2.67810568	      0.02343849	     -7.05446043	      0.01224992
     21.76100000	      8.67817881	    445.97759389	     34.22470935	     -3.45008223	      0.00725169	      2.32474512	     -0.02692659	      9.23782858	      0.04182659	      4.68545342	    429.68331247	    -40.66544618	     -3.46885683	      0.00796669	      2.67810462	      0.02342485	     -7.05035737	      0.01224279
     21.76200000	      8.70193816	    446.07650180	     34.22283269	     -3.45009208	      0.00725162	      2.32475446	     -0.02688265	      9.22275315	      0.04175833	      4.76501455	    429.49744133	    -40.66382684	     -3.46887335	      0.00796663	      2.67810285	      0.02341096	     -7.04617645	      0.01223553
     21.76300000	      8.72449559	    446.17041506	     34.22185896	     -3.45010245	      0.00725155	      2.32476321	     -0.02683672	      9.20699604	      0.04168699	      4.84094209	    429.30510282	    -40.66029346	     -3.46888825	      0.00796658	      2.67810028	      0.02339701	     -7.04197804	      0.01222824
     21.76400000	      8.74592676	    446.25875479	     34.22210097	     -3.45011338	      0.00725148	      2.32477127	     -0.02678874	      9.19053385	      0.04161245	      4.91302124	    429.10662776	    -40.65456416	     -3.46890141	      0.00796653	      2.67809685	      0.02338319	     -7.03781775	      0.01222102
     21.76500000	      8.76630428	    446.34087799	     34.22386476	     -3.45012493	      0.00725142	      2.32477855	     -0.02673864	      9.17334545	      0.04153462	      4.98103514	    428.90233934	    -40.64638879	     -3.46891275	      0.00796648	      2.67809249	      0.02336966	     -7.03374566	      0.01221395
